<?xml version="1.0" encoding="utf-8"?>
<!-- Generator: Adobe Illustrator 27.5.0, SVG Export Plug-In . SVG Version: 6.00 Build 0)  -->
<svg version="1.1" id="Capa_1" xmlns="http://www.w3.org/2000/svg" xmlns:xlink="http://www.w3.org/1999/xlink" x="0px" y="0px"
	 viewBox="0 0 2450 1838" style="enable-background:new 0 0 2450 1838;" xml:space="preserve">
<rect x="0" y="1758.711" style="fill:#A07A71;" width="2449.5" height="78.396"/>
<path style="fill:#9297A3;" d="M2109.817,47.115h31.434v171.67c1.644,0,1.642,3.076,0,3.076v170.033c1.644,0,1.642,3.076,0,3.076
	v171.999h23.73V393.716h30.24l-0.013-0.093h-30.228V220.372V47.115h31.434h135.003V-0.003h-370.456v47.118H2109.817z"/>
<polygon style="fill:#9297A3;" points="1902.162,393.759 1910.786,393.759 1910.786,393.716 1938.255,393.716 1938.255,393.623 
	1910.786,393.623 1910.786,220.372 1910.786,47.115 1938.255,47.115 1938.255,-0.003 1887.057,-0.003 1887.057,393.759 "/>
<path style="fill:#9297A3;" d="M1472.667,566.968v-173.21h31.434h98.32l-0.013-0.089h-30.225V220.418h31.432h167.598h31.433V391.94
	c0.926,0,1.31,0.966,1.194,1.819h60.508V-0.003h-396.341v566.971H1472.667z"/>
<path style="fill:#9297A3;" d="M2364.011,47.115h31.435v171.67c1.644,0,1.641,3.076,0,3.076v170.033c1.644,0,1.641,3.076,0,3.076
	v171.999h9.882V-0.003h-51.198v47.118H2364.011z"/>
<path style="fill:#9297A3;" d="M1971.754,729.245c-0.133,0.376-0.264,0.752-0.397,1.13c0.037,0.003,0.074,0.005,0.111,0.008
	C1971.545,730,1971.649,729.622,1971.754,729.245z"/>
<path style="fill:#9297A3;" d="M943.803,1077.488V899.384h1.902l0.491-14.785c-15.751-5.515-31.381-11.405-46.441-18.256v211.145
	H943.803z"/>
<rect x="2354.129" y="599.757" style="fill:#9297A3;" width="51.198" height="335.137"/>
<path style="fill:#9297A3;" d="M867.721,837.882c-0.484-7.873,0.467-15.698,2.093-23.433V655.546H347.246v165.193h206.246h41.444
	v189.37v77.721h12.956v-85.717h28.215h150.438h28.215v128.923v128.919h-27.158c-0.003,0.024-0.019,0.043-0.024,0.067h27.182v80.826
	h17.816c12.269-14.04,24.894-28.202,37.238-41.611v-451.74C868.433,844.55,867.924,841.169,867.721,837.882z"/>
<polygon style="fill:#9297A3;" points="291.073,820.739 317.305,820.739 317.305,655.546 249.802,655.546 249.802,918.557 
	291.073,918.557 "/>
<path style="fill:#9297A3;" d="M1468.007,1338.373v0.401h-22.709v-35.19v-271.926h-151.663h-78.702v37h194.908v271.129h-232.361
	c-0.003,0.355-0.006,0.709-0.008,1.063h359.27v-2.477C1513.829,1338.373,1490.918,1338.373,1468.007,1338.373z"/>
<path style="fill:#9297A3;" d="M1928.318,926.907c-7.101,0.962-14.23,1.705-21.367,2.351v0.016h31.303v-4.11
	C1934.903,925.853,1931.563,926.467,1928.318,926.907z"/>
<path style="fill:#9297A3;" d="M1960.963,712.024v19.67c0.76-0.222,1.508-0.398,2.255-0.571c0.895-1.28,1.859-2.5,3.112-3.418
	c1.881-1.376,4.239-2.016,6.572-2.023c1.879-5.624,2.826-11.488,2.845-17.331C1970.964,709.807,1966.027,710.932,1960.963,712.024z"
	/>
<path style="fill:#9297A3;" d="M2078.591,897.852c0,0,0.001,0,0.002,0c-1.783-3.321-3.422-6.77-5.021-10.177
	c-7.257-15.465-20.84-42.19-31.651-65.53c-0.514,1.816-0.999,3.643-1.416,5.497c-7.129,31.654,5.276,56.261,22.38,81.501
	c3.424,5.053,7.111,9.983,10.532,15.05h12.944C2083.669,915.28,2080.812,906.437,2078.591,897.852z"/>
<path style="fill:#9297A3;" d="M1468.007,1317.491c22.911,0,45.822,0,68.734,0v-13.907h-68.734V1317.491z"/>
<polygon style="fill:#9297A3;" points="1602.681,645.491 1602.681,1031.657 1535.181,1031.657 1468.007,1031.657 1468.007,1270.791 
	1536.74,1270.791 1536.74,1184.251 1592.514,1184.251 1676.486,1184.251 1676.486,1097.492 1706.727,1097.492 1706.714,1097.399 
	1676.486,1097.399 1676.486,924.147 1676.486,750.896 1707.921,750.896 1864.348,750.896 1864.348,599.757 1468.007,599.757 
	1468.007,645.491 1535.181,645.491 "/>
<path style="fill:#9297A3;" d="M219.859,51.499V0.002h29.943v51.497h36.215v189.37v189.366h-36.215v0.102h36.215v0.051h11.373
	h19.915V0.002h29.941v430.385h79.779c-0.153-0.931,0.355-1.991,1.573-1.991V240.92h41.445h220.973h41.445v189.366h-39.854
	c-0.004,0.034-0.011,0.067-0.017,0.101h129.634h41.445v189.315h6.146V0.002h29.941v725.776
	c11.013-27.367,23.073-54.329,35.407-81.109c8.074-17.523,15.99-46.957,41.462-42.514c0.447,0.078,0.876,0.229,1.32,0.323
	l0.033-0.133l30.276-3.244c2.617-0.357,5.342-0.678,8.11-0.981c4.526-16.587,9.053-33.171,13.577-49.757
	c0.581-2.129,0.983-4.61,1.475-7.047c-1.686-0.076-3.479-0.483-5.333-1.223c-3.751-1.494-6.857-4.274-9.483-7.337
	c-5.126-5.979-8.73-13.249-10.384-20.945c-0.685-3.193-0.964-6.652-0.176-9.763l-12.885,3.852c-7.087-7.333,1.77-13.747,1.77-13.747
	c-0.433-5.65-26.313-82.54,44.659-111.113c-0.153-0.767-0.239-1.559-0.239-2.371c0-6.667,5.403-12.068,12.068-12.068
	c5.124,0,9.475,3.206,11.225,7.712c85.167-16.923,97.729,65.313,97.729,65.313c12.753,0,10.275,13.228,10.275,13.228l-26.431,7.9
	c-0.213,26.604-5.416,53.297-10.612,79.534c-1.449,7.325-2.954,14.78-6.428,21.46c-4.105,7.886-12.031,7.81-20.206,7.384
	c-6.027-0.313-12.192-0.869-18.31-1.762c-0.184,9.787-0.367,19.575-0.551,29.361c8.15,0.624,15.786,1.568,22.597,2.845
	c0.21-0.354,0.452-0.681,0.783-0.921c0.677-0.489,1.568-0.544,2.405-0.557c4.44-0.056,8.603,0.864,12.51,2.462
	c16.923,1.946,34.444,11.47,43.883,22.567c5.536,6.51,9.422,14.207,12.042,22.367h111.314h151.663V-0.003H0v51.502h23.599H219.859z
	 M1000.153,84.406h366.799v61.78h-366.799V84.406z"/>
<path style="fill:#9297A3;" d="M1922.183,852.62c-3.218-10.063-6.253-20.671-4.331-31.063c0.973-5.257,3.18-10.198,5.393-15.067
	c3.645-8.018,7.214-16.153,10.961-24.202c-0.511-11.073-0.478-20.575,2.906-31.992c0.268-0.905,0.669-1.8,1.144-2.684v-75.448
	c-6.777-5.118-12.5-11.534-15.989-19.231c-5.297-11.688-4.694-26.438,3.42-36.379c3.138-3.844,7.253-6.7,11.801-8.65
	c0.222-0.803,0.477-1.594,0.769-2.375v-5.772h-51.198v151.138h19.894v142.273c8.769-2.784,17.505-5.952,26.311-8.571
	C1929.364,874.011,1925.62,863.366,1922.183,852.62z"/>
<path style="fill:#9297A3;" d="M2102.156,735.997c4.95,21.959,0.092,47.257-9.872,67.273c0.953,2.624,1.945,5.234,2.876,7.866
	c9.528,26.907,17.947,54.211,25.175,81.827c0.47,1.795,0.894,3.685,0.982,5.535c0.097,0.366,0.193,0.725,0.287,1.132
	c1.866,8.068,3.292,16.3,4.479,24.565h91.261h31.434v10.701h82.639V599.757h-298.585c20.854,24.46,22.899,59.83,40.034,86.826
	C2083.199,702.862,2097.918,717.187,2102.156,735.997z"/>
<path style="fill:#9297A3;" d="M11.461,430.235H0v0.102h11.478C11.472,430.303,11.465,430.269,11.461,430.235z"/>
<rect x="2428.036" y="-0.003" style="fill:#9297A3;" width="21.464" height="566.971"/>
<rect x="2428.036" y="599.757" style="fill:#9297A3;" width="21.464" height="335.137"/>
<path style="fill:#9297A3;" d="M13.259,1199.627c-0.006-0.034-0.013-0.067-0.016-0.101H0v0.101h13.034H13.259z"/>
<polygon style="fill:#9297A3;" points="121.266,1010.155 121.266,918.557 219.859,918.557 219.859,655.546 0,655.546 0,1010.155 
	102.798,1010.155 "/>
<path style="fill:#7B818A;" d="M1906.772,929.274h0.179v-0.016C1906.891,929.264,1906.832,929.269,1906.772,929.274z"/>
<path style="fill:#7B818A;" d="M1938.255,925.164v4.11h12.825c-0.935-2.175-1.833-4.365-2.753-6.546
	C1945,923.651,1941.634,924.47,1938.255,925.164z"/>
<path style="fill:#7B818A;" d="M2087.873,929.274c-0.493-1.696-1.002-3.388-1.513-5.08h-12.944c0.529,0.784,1.041,1.576,1.555,2.367
	c0.694,0.899,1.387,1.798,2.06,2.713H2087.873z"/>
<path style="fill:#7B818A;" d="M1445.298,1338.774h22.709v-0.401c22.911,0,45.822,0,68.734,0v-20.882c-22.911,0-45.822,0-68.734,0
	v-13.907h68.734v-32.793h-68.734v-239.134h-22.709v271.926V1338.774z"/>
<path style="fill:#7B818A;" d="M1960.963,731.694v-19.67c-0.248,0.054-0.492,0.108-0.74,0.162
	c-3.532,0.763-7.505,1.253-10.513-0.751c-2.666-1.772-3.842-5.03-4.717-8.127l-0.08-0.291c-2.692-9.695-4.299-19.66-5.062-29.69
	c-0.537-0.382-1.071-0.767-1.596-1.164v75.448C1942.014,740.597,1951.799,734.388,1960.963,731.694z"/>
<path style="fill:#7B818A;" d="M2428.036-0.003h-22.709v566.971h-9.882V394.969c1.641,0,1.644-3.076,0-3.076V221.861
	c1.641,0,1.644-3.076,0-3.076V47.115h-31.435h-9.882V-0.003h-22.711v47.118h-135.003h-31.434v173.256v173.252h30.228l0.013,0.093
	h-30.24v173.252h-23.73V394.969c1.642,0,1.644-3.076,0-3.076V221.861c1.642,0,1.644-3.076,0-3.076V47.115h-31.434h-148.854V-0.003
	h-22.708v47.118h-27.468v173.256v173.252h27.468v0.093h-27.468v0.042h-8.625h-15.105V-0.003h-22.709v393.761h-60.508
	c0.116-0.853-0.268-1.819-1.194-1.819V220.418h-31.433h-167.598h-31.432V393.67h30.225l0.013,0.089h-98.32h-31.434v173.21h-4.66
	V-0.003h-22.709v645.494h22.709v-45.734h396.341v151.138h-156.427h-31.435v173.252v173.252h30.228l0.013,0.093h-30.241v86.759
	h90.485c-0.007-0.045-0.017-0.086-0.022-0.131h-53.634V929.274h55.774h0.552c-7.035-1.676-11.605-4.276-6.191-8.042
	c4.846-3.367,16.584-2.996,22.5-4.595c7.584-2.055,15.004-4.713,22.165-7.953c3.863-1.747,7.759-3.692,11.983-4.059
	c2.597-0.228,5.205,0.152,7.785,0.532c2.109,0.311,6.519,1.109,11.305,2.397c16.618-1.721,36.972-6.245,53.091-10.295
	c1.785-0.448,3.58-0.844,5.354-1.321c3.115-0.836,6.218-1.785,9.319-2.768V750.896h-19.894V599.757h51.198v5.772
	c0.21-0.565,0.406-1.135,0.654-1.688c5.331-11.886,18.08-18.692,30.648-22.105c21.354-5.806,41.97-2.89,58.388,12.806
	c1.747,1.671,3.358,3.42,4.89,5.215h298.585v335.137h-82.639v-10.701h-31.434h-91.261c1.13,7.871,2.045,15.773,2.888,23.603
	c0.945,8.76,1.632,17.542,2.152,26.335l64.305,0.167l-0.472,115.986l-68.02-0.008c-0.356,1.653-0.685,3.311-1.087,4.954
	c-0.223,0.911-0.489,1.886-1.205,2.498c-0.591,0.506-1.388,0.679-2.149,0.831c-0.085,0.017-0.17,0.035-0.256,0.051v39.219v43.742
	c1.64,0,2.323,1.426,2.117,2.679h167.496h6.962h55.774v156.598h94.911v-2.076v-35.19v-32.793v-128.32v-4.641V934.894h-21.464
	V599.757h21.464v-32.789h-21.464V-0.003z M2354.129,934.894V599.757h51.198v335.137H2354.129z"/>
<path style="fill:#7B818A;" d="M219.859,918.557h-98.592v91.598h22.975v86.506v102.864h-39.854
	c-0.003,0.034-0.011,0.068-0.016,0.101h115.489v-102.966V918.557z"/>
<path style="fill:#7B818A;" d="M555.082,1199.475c-0.004,0.034-0.011,0.068-0.017,0.102h39.871v141.273h12.956v-79.89
	c-1.475,0-1.473-2.291,0-2.291v-126.522c-1.475,0-1.473-2.291,0-2.291v-42.025h-12.956v111.645H555.082z"/>
<path style="fill:#7B818A;" d="M275.451,1340.849h15.622v-139.902c-2.167,0-2.162-3.363,0-3.363v-100.923v-84.923
	c-2.167,0-2.162-3.363,0-3.363v-89.818h-41.272v178.104v102.966h25.65V1340.849z"/>
<path style="fill:#7B818A;" d="M1175.372,1068.657c0.199,13.866,0.305,27.734,0.402,41.591c0.106,15.101,0.217,30.198,0.317,45.299
	c0,0.095,0.016,0.231,0.019,0.334l0.462,1.527c0,0,1.589,87.402,0.907,182.378h232.361v-271.129h-194.908v-37h-40.435
	C1174.906,1043.984,1175.195,1056.319,1175.372,1068.657z"/>
<path style="fill:#7B818A;" d="M945.705,899.384h-1.902v178.104h-44.048v190.275c14.443-14.576,27.57-26.758,38.057-34.723
	l9.996-92.54c-0.476-12.563-0.574-25.142-0.332-37.713c0.163-8.438,0.485-16.87,0.869-25.3c0.867-19.052,2.168-38.088,3.496-57.113
	c1.167-16.696,2.334-33.392,3.5-50.088c0.258-3.688,0.526-7.373,0.839-11.055c-4.133-1.768-8.239-3.623-12.274-5.675
	L945.705,899.384z"/>
<path style="fill:#7B818A;" d="M1061.932,1186.484c-8.072,33.043-23.885,86.651-47.99,121.112l-33.374,33.253h89.268
	c-0.664-28.411-1.212-55.438-1.512-77.632L1061.932,1186.484z"/>
<path style="fill:#D1AEA2;" d="M636.107,1388.946h-28.215v-48.097h-12.956v48.097h-41.444H347.246v0.051h444.095
	c0.014-0.017,0.029-0.034,0.043-0.051h-4.839H636.107z"/>
<polygon style="fill:#D1AEA2;" points="291.073,1340.849 275.451,1340.849 275.451,1388.997 317.305,1388.997 317.305,1388.946 
	291.073,1388.946 "/>
<path style="fill:#D1AEA2;" d="M814.76,1361.426c5.799-6.758,11.763-13.651,17.816-20.577H814.76V1361.426z"/>
<path style="fill:#D1AEA2;" d="M1982.728,1453.144c0.324,4.434,1.118,8.883,2.007,13.337c1.019,5.101,2.148,10.215,2.789,15.321
	c1.058,8.444-4.332,12.885-12.008,15.19c47.801,0,95.602,0,143.404,0c3.376-11.882,6.653-23.778,8.401-35.915
	c0.378-2.631,0.677-5.276,0.905-7.932C2079.726,1453.144,2031.227,1453.144,1982.728,1453.144z"/>
<path style="fill:#D1AEA2;" d="M2354.589,1431.541c4.364,0,8.727,0,13.09,0c13.924,0,13.901,21.603,0,21.603
	c-61.79,0-123.581,0-185.372,0c-1.43,0-2.86,0-4.29,0c-0.894,1.585-1.861,3.253-2.853,5.067
	c-7.117,13.002-14.387,25.925-21.769,38.78c39.07,0,78.139,0,117.21,0c13.924,0,13.901,21.603,0,21.603c-28.768,0-57.535,0-86.302,0
	c-16.328,0-32.656,0-48.984,0c-5.338,3.635-11.515,5.827-18.673,5.57c-1.116-0.042-2.329-0.177-3.129-0.962
	c-1.158-1.137-0.899-3.015-0.511-4.608c-77.639,0-155.277,0-232.915,0c-13.922,0-13.899-21.603,0-21.603c1.546,0,3.091,0,4.637,0
	c-5.561-2.502-22.209-14.157-15.087-20.426c1.981-1.743,4.829-1.966,7.462-2.169c16.099-1.245,31.995-4.949,47.012-10.882
	c0.912-0.359,1.829-0.696,2.732-1.076c5.609-2.334,11.143-5.17,15.547-9.295c-29.241,0-58.482,0-87.723,0
	c-109.93,0-219.862,0-329.791,0c-13.924,0-13.901-21.603,0-21.603c3.953,0,7.907,0,11.861,0v-90.692h-359.27
	c-0.573,77.925-2.681,160.739-8.454,204.438c0,0-3.898,0.2-10.099,0.445c4.524,6.749,9.573,12.766,15.021,18.247
	c-0.02-0.214-0.107-0.383-0.304-0.477c16.675,7.966,32.135,20.772,47.77,30.725c7.422,4.7,36.584,17.291,33.755,28.89
	c-0.146,0.604-0.321,1.194-0.498,1.776c-1.458,4.772-3.145,9.591-6.215,13.523c-0.194,0.249-0.424,0.439-0.627,0.673
	c2.212,6.335-1.043,14.825-9.759,14.825c-43.156,0-86.312,0-129.468,0c-76.601,0-153.204,0-229.804,0c-76.603,0-153.204,0-229.806,0
	c-13.924,0-13.901-21.603,0-21.603c43.156,0,86.312,0,129.468,0c76.603,0,153.204,0,229.807,0c57.149,0,114.3,0,171.45,0
	c-18.336-6.257-36.324-13.531-53.809-21.873c-10.152-4.844-23.224-9.257-30.008-18.746c-5.972-8.35-6.878-19.186-5.766-29.106
	c0.464-4.139,1.218-8.24,1.983-12.342c0.262-1.406,0.505-2.815,0.76-4.223c-7.601-0.459-13.836-1.213-17.383-2.397
	c0,0-3.456-108.947-5.648-202.775h-89.268l-80.813,80.519v3.468v38.464h-29.941v-0.396c-3.931,0.018-7.861,0.026-11.792,0.043
	l-42.68,42.525l-16.83-13.886c-2.008,7.848-3.113,15.589-3.565,23.262c-0.867,14.751,0.203,30.498,3.597,44.903
	c1.622,6.878,3.523,13.789,5.164,20.696c1.468,6.177,4.814,13.949,4.814,20.27c1.949,8.211,3.321,18.789-4.979,23.987
	c-25.253,15.815-42.335-34.734-49.319-50.51c-9.977-22.54-19.972-45.114-28.063-68.417c-3.673-10.578-7.27-19.072-3.92-30.118
	c1.358-4.476,3.652-8.565,6.519-12.235c-12.923,0.039-25.846,0.109-38.768,0.143c-112.36,0.295-224.722,0.384-337.082,0.27
	c-113.351-0.118-226.701-0.443-340.053-0.975c-14.707-0.067-14.69-22.894,0-22.823c63.926,0.295,127.849,0.531,191.773,0.7
	c112.396,0.295,224.789,0.384,337.185,0.27c68.968-0.072,137.935-0.247,206.901-0.472c3.035-3.738,7.401-9.097,12.828-15.701
	H347.246h-29.941h-67.504h-29.943H0v141.054v192.821H2449.5v-223.349v-189.957v-4.557h-94.911V1431.541z"/>
<path style="fill:#A07A71;" d="M1202.061,1639.413c-7.511-2.174-14.954-4.576-22.355-7.101c-57.15,0-114.301,0-171.45,0
	c-76.603,0-153.204,0-229.807,0c-43.156,0-86.312,0-129.468,0c-13.901,0-13.924,21.603,0,21.603c76.603,0,153.204,0,229.806,0
	c76.601,0,153.204,0,229.804,0c43.156,0,86.312,0,129.468,0c8.715,0,11.971-8.489,9.759-14.825
	C1237.399,1651.048,1214.828,1643.105,1202.061,1639.413z"/>
<path style="fill:#A07A71;" d="M2118.92,1496.992c-47.802,0-95.603,0-143.404,0c-11.835,3.554-29.151,1.982-37.017,1.818
	c-6.403-0.135-13.523,0.502-20.755,0.979c-10.682,0.705-22.24,1.405-32.428-2.536c-0.169-0.066-0.389-0.172-0.588-0.262
	c-1.546,0-3.091,0-4.637,0c-13.899,0-13.922,21.603,0,21.603c77.638,0,155.277,0,232.915,0c0.01-0.044,0.017-0.092,0.028-0.135
	C2114.824,1511.277,2116.89,1504.136,2118.92,1496.992z"/>
<path style="fill:#A07A71;" d="M2135.319,1518.595c16.328,0,32.656,0,48.984,0c28.766,0,57.534,0,86.302,0
	c13.901,0,13.924-21.603,0-21.603c-39.07,0-78.14,0-117.21,0c-0.33,0.574-0.641,1.157-0.971,1.73
	C2148.017,1506.378,2142.412,1513.765,2135.319,1518.595z"/>
<path style="fill:#A07A71;" d="M1950.937,1439.098h-5.273h-55.774h-297.375h-55.774v-7.557c-3.954,0-7.907,0-11.861,0
	c-13.901,0-13.924,21.603,0,21.603c109.929,0,219.861,0,329.791,0c29.241,0,58.482,0,87.723,0c0.683-0.64,1.413-1.227,2.034-1.937
	C1947.494,1447.703,1949.483,1443.525,1950.937,1439.098z"/>
<path style="fill:#A07A71;" d="M2128.424,1450.891c0.134-2.099-0.802-8.242-1.153-11.793h-125.833h-17.616
	c-0.147,0.612-0.334,1.221-0.46,1.835c-0.832,4.055-0.932,8.128-0.634,12.211c48.499,0,96.998,0,145.498,0
	C2128.29,1452.393,2128.377,1451.644,2128.424,1450.891z"/>
<path style="fill:#A07A71;" d="M2298.816,1439.098H2182.01c0.947,4.733-1.098,8.911-3.992,14.046c1.43,0,2.86,0,4.29,0
	c61.791,0,123.582,0,185.372,0c13.901,0,13.924-21.603,0-21.603c-4.363,0-8.727,0-13.09,0v7.557H2298.816z"/>
<path style="fill:#A07A71;" d="M739.438,1453.25c2.26-1.638,4.604-3.163,6.965-4.657l-2.518-2.077c0,0,1.72-2.139,4.835-5.978
	c-68.966,0.225-137.933,0.4-206.901,0.472c-112.396,0.114-224.79,0.025-337.185-0.27c-63.924-0.169-127.847-0.405-191.773-0.7
	c-14.69-0.072-14.707,22.755,0,22.823c113.352,0.531,226.701,0.856,340.053,0.975c112.36,0.114,224.722,0.025,337.082-0.27
	c12.923-0.034,25.846-0.104,38.768-0.143C731.802,1459.534,735.485,1456.117,739.438,1453.25z"/>
<path style="fill:#A07A71;" d="M858.022,1462.948c3.931-0.018,7.861-0.026,11.792-0.043v-11.706L858.022,1462.948z"/>
<polygon style="fill:#C7764C;" points="275.451,1199.627 249.802,1199.627 249.802,1388.997 275.451,1388.997 275.451,1340.849 "/>
<path style="fill:#E39351;" d="M219.859,1388.997v-189.37H104.37c-0.119,0.724-0.627,1.371-1.574,1.371c-29.32,0-58.641,0-87.963,0
	c-0.948,0-1.455-0.648-1.574-1.371h-0.226H0v141.223v12.789h35.24v20.148H0v15.211h13.034H219.859z"/>
<rect x="0" y="1353.638" style="fill:#F7EFEC;" width="35.24" height="20.148"/>
<path style="fill:#C7764C;" d="M144.241,1199.525v-102.864v-86.506h-22.975h-18.468v187.48c0,0-0.001,0-0.002,0
	c-29.32,0-58.641,0-87.963,0c-1.174,0-1.689,0.986-1.59,1.89c0.003,0.034,0.011,0.068,0.016,0.101
	c0.119,0.724,0.626,1.371,1.574,1.371c29.323,0,58.643,0,87.963,0c0.947,0,1.455-0.648,1.574-1.371
	c0.006-0.034,0.013-0.067,0.016-0.101H144.241z"/>
<path style="fill:#E39351;" d="M14.833,1197.635c29.323,0,58.643,0,87.963,0c0.001,0,0.002,0,0.002,0v-187.48H0v189.37h13.243
	C13.143,1198.62,13.659,1197.635,14.833,1197.635z"/>
<rect x="317.305" y="0.002" style="fill:#6C6A6D;" width="29.941" height="430.385"/>
<path style="fill:#E39351;" d="M553.492,1200.947c-20.297,0-40.595,0-60.894,0c-67.175,0-134.349,0-201.524,0v139.902v48.097h26.232
	h15.213h14.728h206.246V1200.947z M354.725,1373.735h-44.899v-20.148h44.899V1373.735z"/>
<rect x="309.826" y="1353.588" style="fill:#F7EFEC;" width="44.899" height="20.148"/>
<path style="fill:#E39351;" d="M291.073,918.557v89.818c20.299,0,40.597,0,60.896,0c67.172,0,134.347,0,201.522,0V820.739H347.246
	h-14.728h-15.213h-26.232V918.557z M309.826,974.75h44.899v20.148h-44.899V974.75z"/>
<rect x="309.826" y="974.75" style="fill:#F7EFEC;" width="44.899" height="20.148"/>
<path style="fill:#E39351;" d="M553.492,1197.584v-185.847c-20.297,0-40.595,0-60.894,0c-67.175,0-134.349,0-201.524,0v84.923
	v100.923c20.299,0,40.597,0,60.896,0C419.142,1197.584,486.317,1197.584,553.492,1197.584z M309.826,1164.12h44.899v20.148h-44.899
	V1164.12z"/>
<rect x="309.826" y="1164.12" style="fill:#F7EFEC;" width="44.899" height="20.148"/>
<path style="fill:#C7764C;" d="M351.97,1008.375c-20.3,0-40.597,0-60.896,0c-2.162,0-2.167,3.363,0,3.363
	c67.175,0,134.349,0,201.524,0c20.3,0,40.597,0,60.894,0v185.847c-67.175,0-134.35,0-201.522,0c-20.3,0-40.597,0-60.896,0
	c-2.162,0-2.167,3.363,0,3.363c67.175,0,134.349,0,201.524,0c20.3,0,40.597,0,60.894,0v187.999h41.444v-48.097v-141.273h-39.871
	c0.006-0.034,0.013-0.068,0.017-0.102h39.854V1087.83v-77.721v-189.37h-41.444v187.636
	C486.317,1008.375,419.142,1008.375,351.97,1008.375z"/>
<polygon style="fill:#C7764C;" points="255.945,619.702 255.945,430.387 286.016,430.387 286.016,430.336 249.802,430.336 
	249.802,619.702 "/>
<path style="fill:#E39351;" d="M219.859,431.708c-68.935,0-137.872,0-206.807,0c-0.948,0-1.456-0.648-1.574-1.371H0v189.366h219.859
	V431.708z M45.805,604.496H0.906v-20.148h44.898V604.496z"/>
<rect x="0.906" y="584.348" style="fill:#F7EFEC;" width="44.898" height="20.148"/>
<rect x="0.906" y="205.511" style="fill:#F7EFEC;" width="44.898" height="20.148"/>
<polygon style="fill:#C7764C;" points="249.802,430.235 286.016,430.235 286.016,240.869 286.016,51.499 249.802,51.499 
	249.802,240.869 "/>
<path style="fill:#E39351;" d="M13.052,428.345c68.935,0,137.871,0,206.807,0V242.498c-68.935,0-137.872,0-206.807,0
	c-1.061,0-1.594-0.806-1.616-1.629c-0.023-0.858,0.511-1.734,1.616-1.734c68.935,0,137.871,0,206.807,0V51.499H23.598H0v189.37
	v189.366h11.462C11.363,429.33,11.878,428.345,13.052,428.345z M0.906,205.511h44.898v20.148H0.906V205.511z M0.906,394.881h44.898
	v20.148H0.906V394.881z"/>
<rect x="0.906" y="394.881" style="fill:#F7EFEC;" width="44.898" height="20.148"/>
<path style="fill:#C7764C;" d="M13.052,428.345c-1.174,0-1.689,0.986-1.59,1.89c0.003,0.034,0.011,0.068,0.016,0.102
	c0.118,0.724,0.626,1.371,1.574,1.371c68.935,0,137.871,0,206.807,0v-3.363C150.923,428.345,81.987,428.345,13.052,428.345z"/>
<path style="fill:#C7764C;" d="M13.052,239.135c-1.105,0-1.639,0.875-1.616,1.734c0.022,0.823,0.555,1.629,1.616,1.629
	c68.935,0,137.871,0,206.807,0v-3.363C150.923,239.135,81.987,239.135,13.052,239.135z"/>
<path style="fill:#C7764C;" d="M814.76,1260.023h-27.182c0.004-0.024,0.021-0.043,0.024-0.067h27.158v-128.919v-128.923h-28.215
	v127.742c-59.55,0-119.1,0-178.653,0c-1.473,0-1.475,2.291,0,2.291c59.552,0,119.102,0,178.653,0v126.522
	c-59.55,0-119.1,0-178.653,0c-1.473,0-1.475,2.291,0,2.291c59.552,0,119.102,0,178.653,0v127.987h4.839
	c7.316-8.698,15.178-17.967,23.376-27.52v-20.577V1260.023z"/>
<path style="fill:#E39351;" d="M607.892,1388.946h28.215h150.438v-127.987c-59.55,0-119.1,0-178.653,0v79.89V1388.946z
	 M620.66,1364.875h30.567v13.717H620.66V1364.875z"/>
<rect x="620.66" y="1364.875" style="fill:#F7EFEC;" width="30.567" height="13.717"/>
<path style="fill:#E39351;" d="M786.545,1129.855v-127.742H636.107h-28.215v85.717v42.025
	C667.444,1129.855,726.995,1129.855,786.545,1129.855z M620.66,1106.965h30.567v13.717H620.66V1106.965z"/>
<rect x="620.66" y="1106.965" style="fill:#F7EFEC;" width="30.567" height="13.717"/>
<path style="fill:#E39351;" d="M786.545,1258.668v-126.522c-59.55,0-119.1,0-178.653,0v126.522
	C667.444,1258.668,726.995,1258.668,786.545,1258.668z M620.66,1235.888h30.567v13.713H620.66V1235.888z"/>
<rect x="620.66" y="1235.888" style="fill:#F7EFEC;" width="30.567" height="13.713"/>
<polygon style="fill:#6C6A6D;" points="219.859,1388.997 13.033,1388.997 0,1388.997 0,1424.836 219.859,1424.836 "/>
<path style="fill:#6C6A6D;" d="M347.246,1388.997v-0.051h-14.728h-15.213v0.051h-41.854h-25.65v35.839h67.504h29.941h414.301
	c7.954-9.681,18.18-22.031,29.794-35.839H347.246z"/>
<rect x="822.224" y="430.387" style="fill:#C7764C;" width="41.445" height="189.315"/>
<path style="fill:#E39351;" d="M691.016,431.758c-20.297,0-40.596,0-60.894,0c-23.438,0-46.876,0-70.314,0v187.944h262.416V430.387
	H692.59C692.47,431.111,691.962,431.758,691.016,431.758z M623.459,604.546h-44.901v-20.148h44.901V604.546z"/>
<rect x="578.559" y="584.399" style="fill:#F7EFEC;" width="44.901" height="20.148"/>
<path style="fill:#E39351;" d="M255.945,619.702h262.418V431.758c-29.922,0-59.844,0-89.765,0c-0.947,0-1.455-0.648-1.573-1.371
	h-79.779h-29.941H297.39h-11.373h-30.072V619.702z M274.696,584.399h44.901v20.148h-44.901V584.399z"/>
<rect x="274.696" y="584.399" style="fill:#F7EFEC;" width="44.9" height="20.148"/>
<path style="fill:#E39351;" d="M691.016,428.396V240.92H470.043h-41.445v187.476c20.3,0,40.597,0,60.894,0
	C556.667,428.396,623.841,428.396,691.016,428.396z M447.351,394.931h44.898v20.148h-44.898V394.931z"/>
<rect x="447.351" y="394.931" style="fill:#F7EFEC;" width="44.898" height="20.148"/>
<path style="fill:#C7764C;" d="M428.598,431.758c29.922,0,59.844,0,89.765,0v187.944h41.445V431.758c23.438,0,46.876,0,70.314,0
	c20.298,0,40.597,0,60.894,0c0.947,0,1.455-0.648,1.574-1.371c0.006-0.034,0.013-0.067,0.017-0.101h39.854V240.92h-41.445v187.476
	c-67.174,0-134.349,0-201.524,0c-20.298,0-40.595,0-60.894,0c-1.218,0-1.726,1.06-1.573,1.991
	C427.143,431.111,427.651,431.758,428.598,431.758z"/>
<rect x="0" y="619.702" style="fill:#6C6A6D;" width="219.859" height="35.844"/>
<path style="fill:#6C6A6D;" d="M559.808,619.702h-41.445H255.945h-6.143v35.844h67.504v165.193h15.213h14.728V655.546h522.568
	V814.45c1.326-6.308,3.092-12.558,4.964-18.715c7.21-23.721,15.73-46.98,24.977-69.957V0.002h-29.941v619.7h-6.146h-41.445H559.808z
	"/>
<path style="fill:#6C6A6D;" d="M899.755,866.343c-6.831-3.107-13.578-6.355-20.11-9.946c-3.049-1.679-6.148-3.489-8.26-6.257
	c-0.628-0.824-1.137-1.714-1.571-2.641v451.74c10.306-11.196,20.409-21.856,29.941-31.475v-190.275V866.343z"/>
<polygon style="fill:#93979C;" points="249.802,1199.627 249.802,1096.661 249.802,918.557 249.802,655.546 249.802,619.702 
	249.802,430.336 249.802,430.235 249.802,240.869 249.802,51.499 249.802,0.002 219.859,0.002 219.859,51.499 219.859,239.135 
	219.859,242.498 219.859,428.345 219.859,431.708 219.859,619.702 219.859,655.546 219.859,918.557 219.859,1096.661 
	219.859,1199.627 219.859,1388.997 219.859,1424.836 249.802,1424.836 249.802,1388.997 "/>
<polygon style="fill:#6C6A6D;" points="869.814,1451.199 869.814,1462.904 869.814,1463.3 899.755,1463.3 899.755,1424.836 
	899.755,1421.368 896.274,1424.836 "/>
<rect x="1000.153" y="84.406" style="fill:#F7EFEC;" width="366.799" height="61.78"/>
<polygon style="fill:#C7764C;" points="1592.514,1439.098 1592.514,1184.251 1536.74,1184.251 1536.74,1270.791 1536.74,1303.584 
	1536.74,1317.491 1536.74,1338.373 1536.74,1340.849 1536.74,1431.541 1536.74,1439.098 "/>
<path style="fill:#E39351;" d="M1592.514,1439.098h297.375h55.774v-252.999c-58.858,0-117.716,0-176.575,0
	c-1.276,0-1.959-0.873-2.118-1.848h-90.485h-83.972V1439.098z M1860.004,1391.516h60.426v27.114h-60.426V1391.516z"/>
<rect x="1860.004" y="1391.516" style="fill:#F7EFEC;" width="60.426" height="27.114"/>
<path style="fill:#C7764C;" d="M2001.438,1390.154c-2.327,6.102-4.707,12.183-7.139,18.244c-3.428,8.54-6.956,17.418-9.399,26.401
	c-0.389,1.432-0.733,2.865-1.078,4.3h17.616V1390.154z"/>
<path style="fill:#E39351;" d="M2127.271,1439.098c-0.075-0.766-0.134-1.453-0.138-1.907c-0.019-2.253-1.173-4.321-2.306-6.27
	c-2.555-4.392-5.162-8.692-7.801-12.949c-12.095-19.493-25.285-37.54-41.631-53.713c-17.058-16.876-32.893-35.291-48.133-53.958
	c-1.278,8.344-3.756,16.51-6.361,24.565c-6.01,18.593-12.501,37.03-19.464,55.287v48.944H2127.271z"/>
<path style="fill:#E39351;" d="M2122.24,1186.099c-17.052,0-34.104,0-51.156,0c-2.5,5.765-4.975,11.54-7.582,17.258
	c-5.697,12.494-11.739,24.828-17.938,37.082c0.508,0.592,0.813,1.305,0.854,2.119c0.954,0.556,1.887,1.103,2.774,1.63
	c12.198,7.249,24.432,14.996,33.525,25.89c6.905,8.279,11.73,18.055,16.348,27.793c11.171,23.557,21.53,47.497,31.049,71.767
	c3.591,9.156,7.173,18.481,12.525,26.671c1.118,1.709,2.287,3.388,3.58,4.987c4.287,5.295,9.479,9.717,14.74,14.08
	c5.551,4.603,11.179,9.135,15.909,14.544c3.021,3.456,4.588,6.412,5.141,9.177h116.806h55.774v-7.557v-90.692v-156.598h-55.774
	h-6.962h-167.496C2124.198,1185.226,2123.514,1186.099,2122.24,1186.099z M2268.93,1391.516h60.423v27.114h-60.423V1391.516z"/>
<rect x="2268.93" y="1391.516" style="fill:#F7EFEC;" width="60.423" height="27.114"/>
<path style="fill:#E39351;" d="M2103.282,1101.952c-3.855,11.609-7.972,23.125-12.243,34.586h5.965v27.114h-16.514
	c-2.43,5.991-4.873,11.975-7.417,17.92c16.389,0,32.778,0,49.167,0v-43.742v-39.219c-3.855,0.789-7.709,1.573-11.565,2.358
	C2108.866,1101.337,2106.2,1101.752,2103.282,1101.952z"/>
<path style="fill:#E39351;" d="M2094.528,958.349c-0.658-3.407-1.277-6.822-1.941-10.227c-1.22-6.257-2.887-12.562-4.714-18.848
	h-10.842C2083.744,938.398,2089.435,948.227,2094.528,958.349z"/>
<path style="fill:#E39351;" d="M1851.291,1181.572c34.785,0,69.57,0,104.355,0c-0.133-1.725-0.274-3.412-0.44-5.009
	c-2.827-27.185-4.289-54.515-4.373-81.848c-0.08-25.831,1.139-51.978,7.586-76.912c-0.623,0.147-1.242,0.283-1.867,0.436
	c1.222-13.907,2.441-27.814,3.663-41.717c0.563-6.435,1.126-12.92,0.316-19.325c-0.649-5.131-2.162-10.071-4.008-14.911
	c-1.354-3.549-2.888-7.042-4.392-10.515c-0.359-0.829-0.693-1.669-1.05-2.498h-12.825h-31.303h-0.179
	c-2.414,0.217-4.826,0.468-7.243,0.654c-7.479,0.578-14.966,1.017-22.46,1.262c-8.352,0.27-16.708,0.329-25.063,0.185
	c-1.336-0.025-3.521,0.207-5.718,0.308c-0.207,0.01-0.409,0.01-0.615,0.017c-6.396,5.014-12.793,10.027-19.188,15.042
	c-3.137,2.46-6.757,5.059-10.707,4.523c-1.027-0.143-2.16-0.642-2.424-1.641c-0.179-0.688,0.111-1.405,0.409-2.055
	c1.084-2.354,2.318-4.646,3.599-6.916c2.072-3.671,4.261-7.283,6.122-10.991c-0.673,1.333-27.886,1.86-31.023,2.072
	c-2.934,0.2-14.573-0.494-22.822-2.46h-0.552v252.298C1796.489,1181.572,1823.89,1181.572,1851.291,1181.572z"/>
<path style="fill:#F7EFEC;" d="M2097.005,1163.652v-27.114h-5.965c-3.387,9.089-6.905,18.125-10.549,27.114H2097.005z"/>
<path style="fill:#C7764C;" d="M1769.089,1186.099c58.858,0,117.717,0,176.575,0v252.999h5.273c0.701-2.136,1.318-4.31,1.795-6.531
	c0.538-2.506,0.973-5.038,1.352-7.544c3.71-24.388,3.882-48.616,3.778-73.206c-0.104-24.768,1.523-49.51,3.521-74.185
	c0.882-10.895,0.565-25.084,3.395-36.363c0.109-0.436,0.252-0.848,0.377-1.273c-7.39-14.878-8.062-36.522-9.189-53.895
	c-0.1-1.546-0.207-3.057-0.32-4.527c-34.785,0-69.571,0-104.355,0c-27.401,0-54.801,0-82.202,0V929.274h-55.774v254.846h53.634
	c0.005,0.044,0.015,0.086,0.022,0.131C1767.13,1185.226,1767.812,1186.099,1769.089,1186.099z"/>
<path style="fill:#C7764C;" d="M2071.084,1186.099c17.052,0,34.104,0,51.156,0c1.274,0,1.957-0.873,2.117-1.848
	c0.206-1.253-0.477-2.679-2.117-2.679c-16.389,0-32.778,0-49.167,0C2072.425,1183.088,2071.74,1184.587,2071.084,1186.099z"/>
<path style="fill:#F6B19D;" d="M1792.462,931.734c3.137-0.211,30.35-0.738,31.023-2.072c-1.861,3.709-4.051,7.321-6.122,10.991
	c-1.281,2.27-2.515,4.561-3.599,6.916c-0.298,0.65-0.589,1.367-0.409,2.055c0.264,1,1.396,1.498,2.424,1.641
	c3.95,0.536,7.57-2.063,10.707-4.523c6.396-5.015,12.792-10.029,19.188-15.042c0.207-0.007,0.408-0.007,0.615-0.017
	c2.196-0.101,4.382-0.333,5.718-0.308c8.354,0.144,16.711,0.085,25.063-0.185c7.494-0.245,14.981-0.684,22.46-1.262
	c-1.367-11.152-3.635-22.131-7.251-32.671c-16.119,4.051-36.474,8.575-53.091,10.295c-4.786-1.287-9.196-2.086-11.305-2.397
	c-2.58-0.38-5.188-0.76-7.785-0.532c-4.224,0.367-8.12,2.312-11.983,4.059c-7.161,3.241-14.58,5.898-22.165,7.953
	c-5.915,1.599-17.654,1.228-22.5,4.595c-5.414,3.766-0.844,6.366,6.191,8.042C1777.889,931.24,1789.528,931.934,1792.462,931.734z"
	/>
<path style="fill:#FBBA0F;" d="M1961.843,733.145c0.435-0.686,0.907-1.352,1.375-2.021c-0.747,0.173-1.495,0.348-2.255,0.571
	c-9.164,2.694-18.949,8.903-22.708,15.919c-0.474,0.884-0.875,1.778-1.144,2.684c-3.384,11.418-3.417,20.92-2.906,31.992
	c6.401-13.751,13.327-27.246,22.077-39.461C1958.527,739.693,1959.82,736.33,1961.843,733.145z"/>
<path style="fill:#FBBA0F;" d="M1906.772,929.274c0.06-0.005,0.119-0.01,0.179-0.016c7.137-0.647,14.266-1.389,21.367-2.351
	c3.245-0.44,6.585-1.054,9.937-1.743c3.38-0.694,6.745-1.513,10.072-2.437c-5.309-12.596-10.342-25.305-15.065-38.13
	c-8.806,2.619-17.542,5.787-26.311,8.571c-3.101,0.983-6.204,1.932-9.319,2.768c-1.774,0.477-3.569,0.873-5.354,1.321
	c3.616,10.54,5.884,21.519,7.251,32.671C1901.946,929.742,1904.358,929.491,1906.772,929.274z"/>
<path style="fill:#21101F;" d="M1925.685,616.555c-8.114,9.941-8.717,24.692-3.42,36.379c3.489,7.696,9.212,14.113,15.989,19.231
	c0.525,0.397,1.059,0.782,1.596,1.164c-0.966-12.698-0.401-25.489,1.695-38.05c7.578,13.902,22.129,26.72,36.794,30.909
	c7.869,2.253,16.338,1.591,24.097,4.291c1.443,0.503,3.17,1.091,4.639,1.951c0.91-1.882,1.94-3.705,3.177-5.39
	c4.162-5.671,13.43-10.612,19.958-5.574c0.762,0.587,1.422,1.304,1.937,2.156c1.85,3.068,1.464,6.983,0.504,10.43
	c-1.62,5.827-4.717,11.232-8.919,15.582c-2.154,2.228-4.66,4.215-7.606,5.19c-3.13,1.036-5.955,0.888-8.144-0.438
	c-1.24,4.073-1.873,7.508-0.982,12.404c1.361,7.495,4.907,14.453,9.653,20.438c0.286-0.484,0.56-0.978,0.85-1.459
	c0.483-0.806,0.994-1.637,1.793-2.127c1.11-0.684,2.521-0.553,3.81-0.362c3.879,0.569,7.706,1.485,11.426,2.73
	c-0.018,0.798-0.255,1.551-0.574,2.278c7.816-4.714,22.666,1.614,30.133,10.798c7.567,9.308,11.548,20.995,15.954,31.987
	c4.271,10.66,8.321,21.405,12.239,32.197c9.964-20.016,14.822-45.314,9.872-67.273c-4.239-18.81-18.958-33.135-29.289-49.413
	c-17.135-26.997-19.18-62.367-40.034-86.826c-1.531-1.795-3.142-3.544-4.89-5.215c-16.418-15.696-37.034-18.612-58.388-12.806
	c-12.568,3.413-25.316,10.219-30.648,22.105c-0.248,0.553-0.443,1.122-0.654,1.688c-0.292,0.782-0.547,1.573-0.769,2.375
	C1932.938,609.854,1928.823,612.711,1925.685,616.555z"/>
<path style="fill:#4D82A3;" d="M1984.9,1434.798c2.443-8.983,5.97-17.861,9.399-26.401c2.432-6.06,4.812-12.141,7.139-18.244
	c6.963-18.257,13.454-36.695,19.464-55.287c2.604-8.055,5.083-16.221,6.361-24.565c15.24,18.667,31.075,37.082,48.133,53.958
	c16.346,16.173,29.535,34.219,41.631,53.713c9.559-5.641,18.223-12.996,25.614-21.662c-5.353-8.19-8.935-17.515-12.525-26.671
	c-9.519-24.27-19.877-48.211-31.049-71.767c-4.618-9.738-9.443-19.515-16.348-27.793c-9.093-10.894-21.327-18.641-33.525-25.89
	c-0.887-0.527-1.819-1.074-2.774-1.63c0.018,0.355,0.035,0.714-0.052,1.094c-0.363,1.589-2.132,2.725-3.765,2.564
	c-0.219-0.021-0.443,0.016-0.652-0.058c-3.042-1.059-6.184-1.845-9.376-2.282c-0.186-0.022-0.484-0.058-0.552-0.064
	c-0.477-0.054-0.957-0.101-1.437-0.139c-0.719-0.055-1.439-0.097-2.16-0.122c-1.683-0.059-3.367-0.026-5.048,0.084
	c-2.009,0.131-3.509-1.751-3.591-3.591c-0.093-2.029,1.719-3.472,3.591-3.591c6.907-0.452,13.947,0.502,20.483,2.781
	c0.718,0.25,1.264,0.691,1.706,1.205c6.198-12.254,12.241-24.588,17.938-37.082c2.606-5.718,5.082-11.492,7.582-17.258
	c0.656-1.513,1.341-3.011,1.989-4.527c2.543-5.944,4.987-11.928,7.417-17.92c3.645-8.988,7.162-18.025,10.549-27.114
	c4.271-11.461,8.388-22.978,12.243-34.586c-7.683,0.528-17.171-0.485-17.784-8.152c-0.095-1.198-0.094-2.369-0.047-3.528
	l-57.497-0.007l-0.471-29.132c-1.044,1.708-2.023,3.465-2.859,5.334c-0.589,1.319-2.159,1.875-3.558,1.713
	c-5.505,19.671-10.439,39.495-14.731,59.468c-3.721,17.325-6.977,34.751-9.76,52.253c-2.73,17.185-5.93,34.759-6.458,52.181
	c-0.487,16.126,3.989,30.763,14.59,43.072c2.228,2.586,4.538,5.099,6.809,7.629c6.384,7.109,12.446,14.361,15.362,23.809
	c0.347,1.125,0.154,2.08-0.342,2.815c-1.457,2.159-5.569,2.379-6.584-0.908c-3.434-11.127-11.973-19.057-19.576-27.616
	c-3.111-3.502-6.079-7.099-8.455-11.08c-2.745-4.597-4.735-9.426-6.163-14.395c-2.648-9.215-3.269-18.932-2.531-28.702
	c0.117-1.555,0.306-3.111,0.447-4.666c1.456-16.11,4.036-32.231,6.64-48.165c5.877-35.995,13.804-71.632,23.601-106.762
	c-16.24-8.887-28.893-23.232-35.996-40.292c-0.749-1.802,0.819-3.954,2.509-4.418c0.434-0.119,0.839-0.117,1.231-0.082
	c1.452,0.128,2.6,1.18,3.186,2.589c6.517,15.654,18.707,28.658,33.648,36.561c0.188,0.099,0.279,0.244,0.435,0.359
	c2.199-4.61,5.089-8.793,8.36-12.694l-0.581-35.944l-0.635-39.332l71.433,0.185c-0.972-5.237-1.971-10.468-2.98-15.697
	c-5.093-10.122-10.784-19.951-17.497-29.075c-0.673-0.915-1.366-1.814-2.06-2.713c-0.927-1.202-1.783-2.452-2.752-3.625
	c-12.569-15.215-28.305-27.494-41.702-41.987c-18.917-20.464-28.369-44.354-26.072-72.354c0.034-1.992,0.384-4.038,0.641-6.013
	c3.016-23.18,11.539-46.333,23.938-66.276c0.419-2.048,1.067-3.853,2.045-5.285c0.789-1.155,1.767-2.058,2.888-2.735
	c0.319-0.728,0.556-1.48,0.574-2.278c-3.72-1.245-7.547-2.16-11.426-2.73c-1.289-0.19-2.7-0.321-3.81,0.362
	c-0.799,0.49-1.31,1.321-1.793,2.127c-0.289,0.481-0.564,0.975-0.85,1.459c-0.721,1.221-1.434,2.448-2.144,3.68
	c-4.596,7.984-9.061,16.114-14.726,23.338c-6.329,8.071-14.814,15.565-25.325,17.054c-7.979,1.131-12.943-2.295-11.711-10.608
	c1.396-9.4,4.61-18.946,7.835-28.12c0.258-0.734,0.516-1.469,0.773-2.198c0.133-0.378,0.264-0.753,0.397-1.13
	c0.422-1.196,0.843-2.389,1.253-3.569c-0.035,0-0.07,0.006-0.105,0.006c-2.333,0.007-4.691,0.648-6.572,2.023
	c-1.253,0.918-2.216,2.138-3.112,3.418c-0.468,0.669-0.94,1.336-1.375,2.021c-2.023,3.186-3.317,6.548-5.562,9.683
	c-8.75,12.214-15.676,25.71-22.077,39.461c-3.747,8.048-7.316,16.183-10.961,24.202c-2.213,4.869-4.42,9.81-5.393,15.067
	c-1.922,10.392,1.114,21,4.331,31.063c3.437,10.746,7.181,21.39,11.079,31.977c4.723,12.825,9.756,25.534,15.065,38.13
	c0.92,2.182,1.817,4.371,2.753,6.546c0.357,0.829,0.691,1.669,1.05,2.498c1.504,3.473,3.038,6.966,4.392,10.515
	c1.846,4.84,3.359,9.781,4.008,14.911c0.81,6.405,0.247,12.89-0.316,19.325c-1.221,13.903-2.441,27.81-3.663,41.717
	c0.625-0.153,1.244-0.289,1.867-0.436c-6.447,24.934-7.666,51.081-7.586,76.912c0.084,27.333,1.546,54.662,4.373,81.848
	c0.166,1.596,0.307,3.284,0.44,5.009c0.113,1.47,0.219,2.981,0.32,4.527c1.127,17.373,1.799,39.018,9.189,53.895
	c-0.125,0.425-0.268,0.837-0.377,1.273c-2.829,11.278-2.513,25.468-3.395,36.363c-1.998,24.675-3.625,49.417-3.521,74.185
	c0.103,24.59-0.068,48.818-3.778,73.206c-0.38,2.506-0.815,5.038-1.352,7.544C1963.235,1435.401,1974.376,1436.173,1984.9,1434.798z
	"/>
<path style="fill:#F7EFEC;" d="M1984.735,1466.481c-0.89-4.455-1.684-8.903-2.007-13.337c-0.298-4.083-0.198-8.156,0.634-12.211
	c0.126-0.614,0.313-1.224,0.46-1.835c0.345-1.434,0.689-2.868,1.078-4.3c-10.523,1.375-21.664,0.603-32.168-2.232
	c-0.477,2.221-1.094,4.395-1.795,6.531c-1.453,4.427-3.442,8.605-6.509,12.109c-0.62,0.71-1.351,1.297-2.034,1.937
	c-4.403,4.125-9.938,6.961-15.547,9.295c-0.903,0.38-1.82,0.717-2.732,1.076C1937.375,1478.781,1965.603,1476.435,1984.735,1466.481
	z"/>
<path style="fill:#161229;" d="M1917.744,1499.789c7.232-0.477,14.352-1.114,20.755-0.979c7.866,0.163,25.182,1.735,37.017-1.818
	c7.676-2.305,13.066-6.746,12.008-15.19c-0.641-5.106-1.77-10.22-2.789-15.321c-19.133,9.953-47.36,12.3-60.62-2.966
	c-15.017,5.932-30.913,9.637-47.012,10.882c-2.633,0.203-5.481,0.426-7.462,2.169c-7.122,6.269,9.526,17.924,15.087,20.426
	c0.199,0.09,0.419,0.196,0.588,0.262C1895.504,1501.194,1907.063,1500.494,1917.744,1499.789z"/>
<path style="fill:#F7EFEC;" d="M2117.026,1417.971c2.639,4.258,5.247,8.557,7.801,12.949c1.133,1.949,2.287,4.017,2.306,6.27
	c0.004,0.454,0.063,1.141,0.138,1.907c0.351,3.552,1.287,9.694,1.153,11.793c-0.047,0.753-0.134,1.502-0.198,2.253
	c-0.228,2.656-0.527,5.302-0.905,7.932c20.54,2.612,30.869-25.979,33.639-45.7c-5.262-4.363-10.453-8.785-14.74-14.08
	c-1.293-1.599-2.462-3.278-3.58-4.987C2135.249,1404.975,2126.585,1412.33,2117.026,1417.971z"/>
<path style="fill:#161229;" d="M2182.01,1439.098c-0.554-2.765-2.12-5.721-5.141-9.177c-4.73-5.41-10.358-9.941-15.909-14.544
	c-2.77,19.721-13.099,48.312-33.639,45.7c-1.747,12.137-5.024,24.034-8.401,35.915c-2.03,7.145-4.096,14.285-5.886,21.468
	c-0.011,0.043-0.018,0.09-0.028,0.135c-0.388,1.593-0.647,3.47,0.511,4.608c0.8,0.785,2.013,0.92,3.129,0.962
	c7.158,0.257,13.335-1.935,18.673-5.57c7.093-4.83,12.698-12.217,17.105-19.873c0.33-0.573,0.642-1.156,0.971-1.73
	c7.382-12.855,14.652-25.778,21.769-38.78c0.993-1.814,1.959-3.482,2.853-5.067
	C2180.912,1448.009,2182.957,1443.83,2182.01,1439.098z"/>
<path style="fill:#F6B19D;" d="M1944.993,703.309c0.875,3.097,2.051,6.354,4.717,8.127c3.008,2.004,6.981,1.514,10.513,0.751
	c0.248-0.054,0.492-0.109,0.74-0.162c5.064-1.093,10.001-2.217,14.784-3.673c-0.019,5.843-0.966,11.707-2.845,17.331
	c0.035,0,0.07-0.006,0.105-0.006c-0.41,1.18-0.832,2.372-1.253,3.569c-0.104,0.378-0.209,0.755-0.287,1.138
	c-0.11,0.54-0.191,1.087-0.225,1.639c-0.017,0.274,0.058,0.53,0.073,0.798c12.123,4.164,25.591,4.202,37.762,0.215
	c1.848-0.604,3.653-1.337,5.433-2.127c0.709-1.232,1.423-2.46,2.144-3.68c-4.745-5.984-8.291-12.943-9.653-20.438
	c-0.89-4.897-0.258-8.331,0.982-12.404c2.189,1.326,5.014,1.474,8.144,0.438c2.945-0.975,5.451-2.962,7.606-5.19
	c4.202-4.351,7.299-9.756,8.919-15.582c0.96-3.447,1.346-7.363-0.504-10.43c-0.515-0.852-1.175-1.569-1.937-2.156
	c-6.528-5.038-15.795-0.097-19.958,5.574c-1.237,1.685-2.267,3.508-3.177,5.39c-1.469-0.861-3.196-1.448-4.639-1.951
	c-7.759-2.7-16.228-2.038-24.097-4.291c-14.666-4.189-29.216-17.007-36.794-30.909c-2.096,12.561-2.661,25.352-1.695,38.05
	c0.763,10.029,2.37,19.995,5.062,29.69L1944.993,703.309z"/>
<path style="fill:#FBBA0F;" d="M1971.315,732.82c-0.016-0.268-0.09-0.523-0.073-0.798c0.034-0.553,0.115-1.099,0.225-1.639
	c-0.036-0.003-0.074-0.005-0.111-0.008c-0.257,0.729-0.515,1.464-0.773,2.198c-3.226,9.174-6.44,18.721-7.835,28.12
	c-1.232,8.313,3.732,11.738,11.711,10.608c10.51-1.489,18.996-8.983,25.325-17.054c5.665-7.224,10.13-15.354,14.726-23.338
	c-1.779,0.79-3.584,1.522-5.433,2.127C1996.906,737.022,1983.438,736.984,1971.315,732.82z"/>
<path style="fill:#20648E;" d="M2023.376,1236.453c-1.872,0.118-3.684,1.562-3.591,3.591c0.082,1.84,1.582,3.721,3.591,3.591
	c1.681-0.11,3.365-0.144,5.048-0.084c0.722,0.026,1.441,0.067,2.16,0.122c0.479,0.038,0.96,0.085,1.437,0.139
	c0.069,0.006,0.366,0.042,0.552,0.064c3.192,0.437,6.334,1.223,9.376,2.282c0.209,0.074,0.434,0.037,0.652,0.058
	c1.633,0.161,3.402-0.976,3.765-2.564c0.087-0.38,0.07-0.738,0.052-1.094c-0.041-0.814-0.346-1.528-0.854-2.119
	c-0.442-0.514-0.988-0.955-1.706-1.205C2037.323,1236.955,2030.283,1236.002,2023.376,1236.453z"/>
<path style="fill:#20648E;" d="M2018.93,1061.83c-0.156-0.115-0.248-0.26-0.435-0.359c-14.941-7.903-27.131-20.907-33.648-36.561
	c-0.586-1.408-1.735-2.461-3.186-2.589c-0.392-0.035-0.797-0.037-1.231,0.082c-1.69,0.464-3.257,2.616-2.509,4.418
	c7.103,17.06,19.756,31.405,35.996,40.292c-9.798,35.129-17.724,70.767-23.601,106.762c-2.603,15.934-5.184,32.055-6.64,48.165
	c-0.141,1.555-0.33,3.111-0.447,4.666c-0.738,9.77-0.117,19.487,2.531,28.702c1.427,4.968,3.418,9.797,6.163,14.395
	c2.376,3.981,5.344,7.578,8.455,11.08c7.603,8.559,16.142,16.489,19.576,27.616c1.015,3.287,5.127,3.068,6.584,0.908
	c0.496-0.735,0.69-1.691,0.342-2.815c-2.916-9.448-8.977-16.7-15.362-23.809c-2.272-2.531-4.582-5.043-6.809-7.629
	c-10.601-12.308-15.078-26.945-14.59-43.072c0.528-17.422,3.728-34.995,6.458-52.181c2.783-17.502,6.038-34.928,9.76-52.253
	c4.292-19.973,9.226-39.797,14.731-59.468c1.399,0.162,2.969-0.394,3.558-1.713c0.836-1.869,1.815-3.626,2.859-5.334l-0.194-11.997
	C2024.019,1053.037,2021.129,1057.22,2018.93,1061.83z"/>
<path style="fill:#F7EFEC;" d="M2130.813,1045.147c-0.004,0.057-0.01,0.115-0.014,0.172c1.006,5.058,0.248,10.993,0.025,15.634
	c-0.478,9.86-1.81,19.672-3.885,29.325l68.02,0.008l0.472-115.986l-64.305-0.167c0.042,0.707,0.105,1.414,0.144,2.121
	C2132.546,999.198,2132.418,1022.223,2130.813,1045.147z"/>
<path style="fill:#F7EFEC;" d="M2026.709,1013.192l0.581,35.944l0.194,11.997l0.471,29.132l57.497,0.007
	c0.156-3.733,0.906-7.319,1.386-11.079c0.137-1.059,0.038-2.135-0.059-3.198c-0.295-3.203-0.589-6.409-0.884-9.616
	c-0.158-1.729-0.317-3.459-0.477-5.186c-0.065-0.73-0.127-1.494,0.169-2.164c0.239-0.54,0.688-0.958,1.123-1.359
	c3.084-2.835,5.917-5.747,8.709-8.856c3.467-3.52,7.161-8.319,11.444-11.155c-1.761-19.1-4.673-38.076-8.094-56.975
	c-0.401-2.215-0.85-4.423-1.26-6.637l-71.433-0.185L2026.709,1013.192z"/>
<path style="fill:#FBBA0F;" d="M2121.318,898.497c-0.089-1.85-0.513-3.74-0.982-5.535c-7.228-27.616-15.648-54.919-25.175-81.827
	c-0.931-2.632-1.923-5.241-2.876-7.866c-3.919-10.792-7.968-21.537-12.239-32.197c-4.406-10.992-8.386-22.679-15.954-31.987
	c-7.467-9.184-22.317-15.512-30.133-10.798c-1.121,0.676-2.099,1.579-2.888,2.735c-0.978,1.431-1.626,3.237-2.045,5.285
	c-12.399,19.943-20.922,43.096-23.938,66.276c-0.257,1.974-0.607,4.021-0.641,6.013c-2.297,28,7.154,51.89,26.072,72.354
	c13.397,14.494,29.133,26.772,41.702,41.987c0.969,1.172,1.825,2.423,2.752,3.625c-0.514-0.791-1.026-1.583-1.555-2.367
	c-3.421-5.067-7.108-9.997-10.532-15.05c-17.103-25.24-29.508-49.848-22.38-81.501c0.418-1.854,0.903-3.682,1.416-5.497
	c10.811,23.341,24.394,50.065,31.651,65.53c1.599,3.407,3.238,6.856,5.021,10.177c0,0-0.001,0-0.002,0
	c2.22,8.584,5.078,17.428,7.769,26.341c0.511,1.692,1.02,3.384,1.513,5.08c1.827,6.286,3.494,12.591,4.714,18.848
	c0.664,3.405,1.283,6.82,1.941,10.227c1.009,5.229,2.008,10.46,2.98,15.697c0.411,2.214,0.859,4.422,1.26,6.637
	c10.974,0.362,21.909,0.228,32.5-4.43c-0.039-0.707-0.102-1.414-0.144-2.121c-0.52-8.793-1.207-17.576-2.152-26.335
	c-0.844-7.83-1.758-15.733-2.888-23.603c-1.187-8.265-2.613-16.497-4.479-24.565
	C2121.511,899.222,2121.415,898.863,2121.318,898.497z"/>
<path style="fill:#F6B19D;" d="M2130.798,1045.319c0.004-0.057,0.01-0.115,0.014-0.172c1.605-22.924,1.734-45.949,0.455-68.894
	c-10.59,4.658-21.525,4.793-32.5,4.43c3.421,18.898,6.333,37.875,8.094,56.975c-4.283,2.837-7.977,7.635-11.444,11.155
	c-2.791,3.109-5.625,6.021-8.709,8.856c-0.435,0.401-0.884,0.819-1.123,1.359c-0.296,0.67-0.234,1.434-0.169,2.164
	c0.16,1.726,0.319,3.456,0.477,5.186c0.295,3.207,0.588,6.414,0.884,9.616c0.097,1.063,0.196,2.139,0.059,3.198
	c-0.479,3.76-1.23,7.346-1.386,11.079c-0.048,1.159-0.049,2.33,0.047,3.528c0.613,7.667,10.101,8.679,17.784,8.152
	c2.918-0.2,5.584-0.615,7.393-0.983c3.856-0.785,7.71-1.568,11.565-2.358c0.085-0.017,0.17-0.035,0.256-0.051
	c0.761-0.152,1.559-0.325,2.149-0.831c0.716-0.612,0.981-1.587,1.205-2.498c0.402-1.643,0.731-3.301,1.087-4.954
	c2.075-9.653,3.408-19.465,3.885-29.325C2131.046,1056.311,2131.804,1050.376,2130.798,1045.319z"/>
<path style="fill:#FBBA0F;" d="M1159.494,638.816c0.973,2.198,1.85,4.428,2.675,6.675h20.152c-2.62-8.16-6.506-15.857-12.042-22.367
	c-9.438-11.097-26.96-20.621-43.883-22.567C1141.842,606.872,1153.065,624.298,1159.494,638.816z"/>
<path style="fill:#F7EFEC;" d="M1092.866,1546.021c-0.256,1.408-0.498,2.818-0.76,4.223c16.677,19.16,40.996,35.882,65.331,31.012
	c1.291-0.858,16.772-14.331,16.502-17.278c-5.448-5.481-10.498-11.498-15.021-18.247
	C1143.353,1546.348,1113.183,1547.249,1092.866,1546.021z"/>
<path style="fill:#161229;" d="M1157.437,1581.257c-24.335,4.869-48.653-11.852-65.331-31.012
	c-0.766,4.101-1.519,8.202-1.983,12.342c-1.112,9.92-0.207,20.755,5.766,29.106c6.785,9.49,19.856,13.903,30.008,18.746
	c17.485,8.342,35.473,15.616,53.809,21.873c7.401,2.525,14.843,4.927,22.355,7.101c12.767,3.692,35.338,11.635,45.759-0.323
	c0.203-0.234,0.433-0.424,0.627-0.673c3.069-3.932,4.757-8.751,6.215-13.523c0.178-0.582,0.353-1.173,0.498-1.776
	c2.829-11.599-26.333-24.19-33.755-28.89c-15.635-9.953-31.095-22.759-47.77-30.725c0.197,0.094,0.284,0.262,0.304,0.477
	C1174.209,1566.926,1158.727,1580.399,1157.437,1581.257z"/>
<path style="fill:#F7EFEC;" d="M794.948,1514.848c0.452-7.673,1.557-15.414,3.565-23.262l-51.936-42.851
	C750.343,1477.994,768.813,1521.148,794.948,1514.848z"/>
<path style="fill:#161229;" d="M746.576,1448.736l-0.174-0.144c-2.36,1.495-4.705,3.019-6.965,4.657
	c-3.952,2.867-7.636,6.285-10.675,10.174c-2.867,3.67-5.161,7.759-6.519,12.235c-3.35,11.046,0.247,19.54,3.92,30.118
	c8.091,23.304,18.086,45.878,28.063,68.417c6.983,15.776,24.066,66.325,49.319,50.51c8.299-5.198,6.928-15.776,4.979-23.987
	c0-6.321-3.346-14.093-4.814-20.27c-1.641-6.907-3.542-13.818-5.164-20.696c-3.395-14.405-4.464-30.152-3.597-44.903
	C768.813,1521.148,750.343,1477.994,746.576,1448.736z"/>
<path style="fill:#4D82A3;" d="M1118.218,1031.657H1107.8v-19.98c-0.547,8.858-1.19,17.709-1.922,26.553
	C1110.094,1036.23,1114.212,1034.042,1118.218,1031.657z"/>
<path style="fill:#FBBA0F;" d="M1010.366,495.631c5.101-3.47,11.117-2.578,16.26,0.261l117.583-35.142l26.431-7.9
	c0,0,2.479-13.228-10.275-13.228c0,0-12.563-82.236-97.729-65.313c-1.75-4.506-6.101-7.712-11.225-7.712
	c-6.665,0-12.068,5.401-12.068,12.068c0,0.812,0.086,1.604,0.239,2.371C968.61,409.61,994.49,486.5,994.923,492.15
	c0,0-8.857,6.413-1.77,13.747l12.885-3.852c0.338-1.332,0.851-2.607,1.645-3.761C1008.417,497.218,1009.33,496.336,1010.366,495.631
	z"/>
<path style="fill:#A45942;" d="M1045.056,623.272c22.101,8.898,54.422,0.401,65.189-22.827c0.137-0.296,0.287-0.591,0.454-0.872
	c-6.811-1.278-14.447-2.222-22.597-2.845c0.184-9.787,0.367-19.575,0.551-29.361c6.118,0.893,12.283,1.449,18.31,1.762
	c8.175,0.427,16.101,0.502,20.206-7.384c3.475-6.679,4.979-14.135,6.428-21.46c5.195-26.237,10.399-52.93,10.612-79.534
	l-117.583,35.142c-5.143-2.84-11.159-3.732-16.26-0.261c-1.036,0.705-1.949,1.587-2.683,2.654c-0.794,1.153-1.307,2.429-1.645,3.761
	c-0.788,3.111-0.509,6.57,0.176,9.763c1.654,7.696,5.257,14.966,10.384,20.945c2.626,3.063,5.732,5.844,9.483,7.337
	c1.855,0.74,3.647,1.147,5.333,1.223c-0.493,2.438-0.894,4.919-1.475,7.047c-4.525,16.586-9.052,33.17-13.577,49.757
	c-2.768,0.304-5.493,0.624-8.11,0.981c0.926,1.055,1.875,2.084,2.842,3.101C1019.982,611.559,1033.104,618.457,1045.056,623.272z"/>
<path style="fill:#20648E;" d="M1107.365,928.658c-5.07-3.753-10.646-9.386-14.534-15.634c-1.127-0.225-2.267-0.483-3.417-0.788
	c-7.244-1.919-14.291-3.563-21.217-5.065l-10.429,16.838c-22.381-8.008-44.761-16.021-67.143-24.038
	c-14.592-5.225-29.546-10.161-44.429-15.371l-0.491,14.785l-1.799,54.172c4.036,2.052,8.141,3.907,12.274,5.675
	c50.31,21.521,107.038,22.634,151.619,17.505l0-47.753C1107.653,928.875,1107.513,928.768,1107.365,928.658z"/>
<path style="fill:#20648E;" d="M1027.978,666.39c4.492,32.531-10.742,58.649-23.578,87.012c-1.292,2.857-19.42,41.002-24.661,52.637
	c1.305,0.885,2.166,2.499,2.233,4.013c0.021,0.468-0.118,0.868-0.235,1.276l107.968,61.12l-1.284,2.073
	c4,1.95,8.163,4.098,11.98,6.424c2.384-1.343,4.862-2.515,7.397-3.582l-0.001-231.87h54.371c-0.825-2.247-1.702-4.477-2.675-6.675
	c-6.429-14.518-17.652-31.944-33.098-38.259c-3.906-1.598-8.07-2.518-12.51-2.462c-0.837,0.013-1.728,0.068-2.405,0.557
	c-0.331,0.24-0.573,0.568-0.783,0.921c-0.167,0.282-0.316,0.577-0.454,0.872c-10.767,23.228-43.088,31.725-65.189,22.827
	c-11.952-4.815-25.074-11.713-33.962-21.072c-0.966-1.017-1.916-2.046-2.842-3.101l-30.276,3.244l-0.033,0.133
	C1004.527,608.095,1024.569,641.692,1027.978,666.39z"/>
<path style="fill:#4D82A3;" d="M1176.572,1157.407l-0.462-1.527c-0.003-0.102-0.019-0.239-0.019-0.334
	c-0.099-15.101-0.211-30.198-0.317-45.299c-0.096-13.857-0.203-27.725-0.402-41.591c-0.177-12.338-0.467-24.673-0.875-37h-39.421
	c-0.213,0.209-0.44,0.403-0.68,0.578c-8.709,6.333-18.072,11.7-27.937,16.017c-0.492,0.215-0.985,0.327-1.475,0.418
	c-1.109,12.159-2.374,24.305-3.846,36.426c-1.228,10.109-0.96,22.523-9.426,29.645c-5.572,4.684-12.859,6.228-19.99,7.034
	c-0.505,4.713-1.01,9.426-1.515,14.139c-1.56,14.555-3.12,29.11-4.679,43.666c-0.257,2.399-1.947,3.785-3.819,4.25
	c-2.757,0.684-5.918-0.689-5.535-4.25c0.909-8.487,1.819-16.973,2.728-25.459c0.062-0.582,0.125-1.163,0.187-1.745
	c0.576-5.377,1.152-10.754,1.728-16.13c0.593-5.531,1.185-11.061,1.778-16.592c-0.995,0.104-2.02-0.007-2.896-0.495
	c-7.551-4.19-14.534-9.481-20.633-15.591c-1.846-1.852-1.715-4.747,0-6.616c1.707-1.861,4.884-1.734,6.614,0
	c1.477,1.481,3.002,2.916,4.58,4.287c0.745,0.65,1.5,1.287,2.266,1.907c0.381,0.308,0.765,0.612,1.148,0.917l0.515,0.391
	c3.253,2.447,6.675,4.654,10.23,6.629c0.87,0.483,1.409,1.244,1.778,2.076c0.414-0.132,0.821-0.275,1.304-0.317
	c0.093-0.008,0.198-0.018,0.292-0.026c-1.479-0.61-2.578-1.947-2.408-4.083c1.42-17.928-1.019-36.013-2.527-53.865
	c-1.538-18.198-3.078-36.392-4.616-54.591c-0.509-6.008,8.85-5.953,9.354,0c1.538,18.198,3.076,36.392,4.616,54.591
	c1.508,17.852,3.947,35.937,2.526,53.865c-0.135,1.699-1.019,2.862-2.162,3.597c6.126-0.772,12.816-2.466,15.741-7.892
	c2.521-4.675,2.441-11.034,3.08-16.181c0.652-5.265,1.272-10.536,1.857-15.81c2.458-22.151,4.296-44.366,5.57-66.615
	c0.295-5.173,7.285-5.871,8.974-2.102v-26.992c-44.581,5.129-101.31,4.016-151.619-17.505c-0.313,3.682-0.582,7.367-0.839,11.055
	c-1.167,16.696-2.333,33.392-3.5,50.088c-1.328,19.025-2.629,38.061-3.496,57.113c-0.384,8.43-0.706,16.862-0.869,25.3
	c-0.242,12.571-0.144,25.15,0.332,37.713l-9.996,92.54c-10.487,7.965-23.614,20.148-38.057,34.723
	c-9.531,9.618-19.634,20.279-29.941,31.475c-12.345,13.409-24.969,27.571-37.238,41.611c-6.053,6.927-12.017,13.82-17.816,20.577
	c-8.198,9.552-16.06,18.822-23.376,27.52c-0.014,0.017-0.028,0.034-0.043,0.051c-11.614,13.808-21.84,26.158-29.794,35.839
	c-5.426,6.604-9.793,11.963-12.828,15.701c-3.115,3.839-4.835,5.978-4.835,5.978l2.518,2.077l0.174,0.144l51.936,42.851
	l16.83,13.886l42.68-42.525l11.792-11.749l26.459-26.363l3.482-3.468l80.813-80.519l33.374-33.253
	c24.105-34.461,39.918-88.069,47.99-121.112l6.391,76.733c0.301,22.194,0.849,49.221,1.512,77.632
	c2.192,93.828,5.648,202.775,5.648,202.775c3.547,1.183,9.782,1.938,17.383,2.397c20.317,1.228,50.486,0.327,66.051-0.289
	c6.201-0.245,10.099-0.445,10.099-0.445c5.773-43.699,7.881-126.513,8.454-204.438c0.003-0.354,0.006-0.709,0.008-1.063
	C1178.16,1244.81,1176.572,1157.407,1176.572,1157.407z M1010.296,1023.881c1.92-1.92,4.65-1.587,6.614,0
	c11.686,9.422,24.582,17.321,38.179,23.658c2.299,1.072,2.863,4.376,1.679,6.401c-1.359,2.321-4.112,2.743-6.399,1.675
	c-14.365-6.696-27.742-15.177-40.073-25.122C1008.32,1028.898,1008.657,1025.518,1010.296,1023.881z"/>
<path style="fill:#20648E;" d="M1105.878,1038.23c0.732-8.844,1.375-17.695,1.922-26.553v-7.949
	c-1.689-3.769-8.679-3.071-8.974,2.102c-1.274,22.249-3.112,44.464-5.57,66.615c-0.584,5.274-1.205,10.545-1.857,15.81
	c-0.639,5.148-0.559,11.506-3.08,16.181c-2.925,5.426-9.616,7.12-15.741,7.892c1.143-0.735,2.027-1.898,2.162-3.597
	c1.422-17.928-1.017-36.013-2.526-53.865c-1.54-18.198-3.078-36.392-4.616-54.591c-0.504-5.953-9.863-6.008-9.354,0
	c1.538,18.198,3.078,36.392,4.616,54.591c1.508,17.852,3.947,35.937,2.527,53.865c-0.17,2.136,0.929,3.473,2.408,4.083
	c-0.094,0.009-0.199,0.018-0.292,0.026c-0.484,0.042-0.89,0.185-1.304,0.317c-0.369-0.832-0.908-1.593-1.778-2.076
	c-3.555-1.974-6.977-4.182-10.23-6.629l-0.515-0.391c-0.383-0.305-0.767-0.609-1.148-0.917c-0.766-0.62-1.521-1.257-2.266-1.907
	c-1.578-1.371-3.103-2.806-4.58-4.287c-1.73-1.734-4.907-1.861-6.614,0c-1.715,1.869-1.846,4.764,0,6.616
	c6.099,6.109,13.082,11.401,20.633,15.591c0.876,0.487,1.901,0.599,2.896,0.495c-0.593,5.531-1.185,11.061-1.778,16.592
	c-0.576,5.376-1.152,10.753-1.728,16.13c-0.062,0.582-0.125,1.163-0.187,1.745c-0.909,8.486-1.818,16.972-2.728,25.459
	c-0.382,3.562,2.778,4.935,5.535,4.25c1.872-0.465,3.562-1.851,3.819-4.25c1.559-14.556,3.119-29.112,4.679-43.666
	c0.505-4.713,1.01-9.426,1.515-14.139c7.131-0.806,14.418-2.349,19.99-7.034c8.466-7.122,8.198-19.536,9.426-29.645
	c1.472-12.121,2.738-24.267,3.846-36.426c0.49-0.091,0.983-0.203,1.475-0.418c9.865-4.316,19.228-9.683,27.937-16.017
	c0.24-0.175,0.467-0.369,0.68-0.578h-16.858C1114.212,1034.042,1110.094,1036.23,1105.878,1038.23z"/>
<path style="fill:#20648E;" d="M1050.37,1055.615c2.287,1.068,5.04,0.646,6.399-1.675c1.183-2.025,0.62-5.329-1.679-6.401
	c-13.597-6.337-26.493-14.236-38.179-23.658c-1.964-1.587-4.694-1.92-6.614,0c-1.639,1.637-1.977,5.017,0,6.612
	C1022.628,1040.438,1036.005,1048.919,1050.37,1055.615z"/>
<path style="fill:#C7764C;" d="M1107.798,645.491l0.001,231.87c5.109-2.146,10.425-3.906,15.6-5.898
	c5.118-1.966,10.238-3.936,15.356-5.903c1.489-0.574,14.504-4.603,14.546-5.595l1.088-0.287c1.177-0.042,2.095,1.169,2.156,2.346
	c0.059,1.177-0.5,2.287-1.08,3.312c-1.998,3.544-4.42,6.844-7.188,9.823c-0.542,0.582-1.665,1.439-2.903,2.405
	c-1.308,1.021-5.443,3.578-5.103,5.663c0.401,2.46,5.046,2.793,7.006,3.363c5.869,1.701,11.717,3.502,17.445,5.641
	c11.487,4.283,22.645,9.962,31.563,18.514c1.006,0.962,2.019,2.03,2.34,3.384c0.321,1.354-0.354,3.038-1.715,3.329
	c-0.956,0.207-1.903-0.304-2.753-0.785c-5.801-3.283-11.951-5.949-18.31-7.945c-2.909-0.911-12.002-5.7-14.371-3.413
	c4.398,3.418,9.344,6.308,13.991,9.396c4.319,2.869,8.65,5.755,12.534,9.19c5.279,4.666,9.673,10.325,12.886,16.595
	c0.492,0.958,0.964,1.97,0.945,3.047c-0.021,1.076-0.69,2.211-1.745,2.413c-0.509,0.097-1.032-0.029-1.527-0.181
	c-2.844-0.857-5.39-2.464-7.899-4.055c-6.247-3.958-12.492-7.92-18.738-11.878c-0.937-0.595-13.572-9.063-13.057-4.954
	c0.168,1.346,2.078,1.624,2.909,2.236c3.646,2.675,7.31,5.426,10.89,8.258c7.453,5.894,14.89,11.806,22.312,17.742
	c0.871,0.697,1.772,1.431,2.257,2.435c0.487,1.004,0.43,2.367-0.432,3.071c-5.896-0.557-11.274-3.464-16.468-6.312
	c-12.333-6.764-24.302-14.481-36.858-20.768c6.869,7.941,15.008,14.781,24.012,20.181c1.721,1.029,3.721,3.131,2.417,4.658
	c-0.742,0.873-2.09,0.785-3.219,0.603c-10.972-1.738-21.679-5.101-31.7-9.89c-10.157-4.853-18.278-11.5-27.188-18.121l0,47.753
	v26.992v7.949v19.98h10.418h16.858h39.421h40.435h78.702V645.491h-111.314h-20.152H1107.798z"/>
<path style="fill:#E39351;" d="M1293.634,1031.657h151.663h22.709h67.174h67.5V645.491h-67.5h-67.174h-22.709h-151.663V1031.657z
	 M1499.015,959.556h73.126v41.084h-73.126V959.556z"/>
<rect x="1499.015" y="959.556" style="fill:#F7EFEC;" width="73.126" height="41.084"/>
<path style="fill:#A45942;" d="M1092.831,913.024c3.889,6.248,9.464,11.881,14.534,15.634c0.147,0.11,0.287,0.217,0.434,0.326
	c8.91,6.621,17.031,13.269,27.188,18.121c10.021,4.789,20.728,8.152,31.7,9.89c1.129,0.182,2.477,0.27,3.219-0.603
	c1.304-1.527-0.696-3.629-2.417-4.658c-9.004-5.401-17.144-12.24-24.012-20.181c12.557,6.286,24.525,14.004,36.858,20.768
	c5.194,2.848,10.572,5.755,16.468,6.312c0.863-0.704,0.92-2.067,0.432-3.071c-0.485-1.004-1.386-1.738-2.257-2.435
	c-7.422-5.937-14.859-11.848-22.312-17.742c-3.58-2.831-7.245-5.582-10.89-8.258c-0.831-0.612-2.741-0.89-2.909-2.236
	c-0.515-4.11,12.12,4.359,13.057,4.954c6.247,3.958,12.491,7.92,18.738,11.878c2.509,1.59,5.055,3.198,7.899,4.055
	c0.496,0.152,1.019,0.278,1.527,0.181c1.055-0.202,1.724-1.337,1.745-2.413c0.019-1.076-0.454-2.089-0.945-3.047
	c-3.213-6.27-7.607-11.928-12.886-16.595c-3.884-3.435-8.215-6.321-12.534-9.19c-4.647-3.088-9.593-5.979-13.991-9.396
	c2.369-2.287,11.462,2.502,14.371,3.413c6.359,1.996,12.509,4.662,18.31,7.945c0.85,0.481,1.797,0.992,2.753,0.785
	c1.361-0.291,2.036-1.975,1.715-3.329c-0.321-1.354-1.333-2.422-2.34-3.384c-8.918-8.553-20.076-14.232-31.563-18.514
	c-5.728-2.139-11.576-3.941-17.445-5.641c-1.96-0.569-6.605-0.903-7.006-3.363c-0.34-2.084,3.795-4.641,5.103-5.663
	c1.238-0.966,2.361-1.822,2.903-2.405c2.768-2.979,5.19-6.278,7.188-9.823c0.58-1.025,1.139-2.135,1.08-3.312
	c-0.061-1.177-0.979-2.388-2.156-2.346l-1.088,0.287c-0.042,0.992-13.057,5.021-14.546,5.595
	c-5.118,1.966-10.239,3.937-15.356,5.903c-5.175,1.992-10.491,3.751-15.6,5.898c-2.536,1.067-5.013,2.239-7.397,3.582
	c-3.817-2.326-7.98-4.474-11.98-6.424l-20.224,32.651c6.926,1.502,13.973,3.147,21.217,5.065
	C1090.564,912.541,1091.704,912.799,1092.831,913.024z"/>
<path style="fill:#FBBA0F;" d="M869.814,814.45c-1.626,7.734-2.577,15.559-2.093,23.433c0.202,3.287,0.711,6.668,2.093,9.616
	c0.434,0.927,0.944,1.817,1.571,2.641c2.112,2.768,5.211,4.578,8.26,6.257c6.532,3.591,13.279,6.839,20.11,9.946
	c15.06,6.851,30.69,12.742,46.441,18.256c14.883,5.21,29.837,10.147,44.429,15.371c22.382,8.017,44.762,16.03,67.143,24.038
	l10.429-16.838l20.224-32.651l1.284-2.073l-107.968-61.12c-0.555,1.941-2.436,3.208-4.443,3.403
	c-2.249,0.219-4.325,0.544-6.936,1.139c-2.528,0.57-5.019,1.296-7.46,2.169c-2.466,0.882-4.042,1.561-6.489,2.81
	c-2.31,1.177-4.54,2.498-6.694,3.941c-2.109,1.409-5.181,0.405-6.398-1.679c-1.331-2.274-0.42-4.996,1.677-6.396
	c9.654-6.456,20.774-10.215,32.301-11.338c0.914-0.089,1.741,0.187,2.444,0.663c5.242-11.635,23.369-49.78,24.661-52.637
	c12.835-28.362,28.069-54.48,23.578-87.012c-3.409-24.698-23.45-58.295-50.034-63.913c-0.443-0.094-0.873-0.245-1.32-0.323
	c-25.472-4.443-33.388,24.992-41.462,42.514c-12.334,26.781-24.394,53.742-35.407,81.109c-9.247,22.978-17.767,46.236-24.977,69.957
	C872.907,801.892,871.14,808.142,869.814,814.45z"/>
<path style="fill:#F6A01B;" d="M979.739,806.039c-0.703-0.476-1.53-0.751-2.444-0.663c-11.527,1.122-22.648,4.882-32.301,11.338
	c-2.097,1.401-3.008,4.122-1.677,6.396c1.217,2.085,4.289,3.089,6.398,1.679c2.154-1.443,4.384-2.764,6.694-3.941
	c2.447-1.249,4.023-1.928,6.489-2.81c2.441-0.873,4.932-1.599,7.46-2.169c2.612-0.594,4.688-0.919,6.936-1.139
	c2.006-0.195,3.888-1.462,4.443-3.403c0.117-0.408,0.256-0.808,0.235-1.276C981.904,808.537,981.044,806.924,979.739,806.039z"/>
</svg>
