<?xml version="1.0" standalone="no"?>
<!DOCTYPE svg PUBLIC "-//W3C//DTD SVG 20010904//EN"
 "http://www.w3.org/TR/2001/REC-SVG-20010904/DTD/svg10.dtd">
<svg version="1.0" xmlns="http://www.w3.org/2000/svg"
 width="1152.000000pt" height="896.000000pt" viewBox="0 0 1152.000000 896.000000"
 preserveAspectRatio="xMidYMid meet">

<g transform="translate(0.000000,896.000000) scale(0.100000,-0.100000)"
fill="#B71C1C" stroke="none">
<path d="M5645 6659 c-159 -54 -595 -201 -968 -325 -425 -142 -681 -232 -684
-241 -3 -8 4 -35 16 -60 18 -38 24 -43 44 -37 207 65 654 209 823 264 884 288
1078 350 1102 350 11 0 162 -57 334 -127 172 -69 412 -166 533 -215 121 -49
234 -95 250 -102 28 -13 137 -56 142 -56 9 0 43 84 36 90 -4 4 -152 69 -328
145 -261 111 -548 235 -660 285 -11 5 -54 23 -95 41 -41 17 -103 45 -138 60
-34 16 -75 29 -90 28 -15 0 -157 -45 -317 -100z"/>
<path d="M5900 6490 c-14 -5 -126 -41 -250 -80 -124 -40 -326 -105 -450 -145
-124 -40 -286 -92 -360 -115 -74 -23 -209 -66 -300 -96 -91 -29 -218 -70 -282
-90 l-118 -37 0 -648 0 -648 43 -5 c23 -3 152 -8 287 -11 135 -3 377 -8 538
-12 160 -3 293 -4 294 -2 1 2 4 175 7 384 l6 379 33 7 c19 4 111 8 205 10
l172 4 5 -390 c3 -214 7 -391 8 -392 1 -2 49 -3 106 -3 l103 0 7 78 c3 42 4
219 1 392 -2 173 -4 566 -5 873 0 439 -3 557 -12 556 -7 0 -24 -4 -38 -9z
m-206 -636 c12 -31 7 -299 -6 -317 -10 -12 -43 -19 -138 -27 -69 -7 -143 -10
-165 -8 l-40 3 -3 163 c-2 133 0 163 12 168 18 7 228 31 287 33 34 1 48 -3 53
-15z m-534 -208 c0 -96 -4 -157 -10 -161 -6 -4 -74 -11 -151 -17 -118 -9 -143
-8 -150 3 -14 22 -11 286 3 295 15 9 187 31 256 33 l52 1 0 -154z m-430 -46
l0 -149 -32 -5 c-18 -3 -83 -8 -144 -11 -97 -5 -112 -4 -118 10 -10 26 -7 248
4 265 9 14 146 36 248 39 l42 1 0 -150z m418 -248 c9 -7 12 -78 10 -323 l-3
-314 -355 3 c-227 3 -360 8 -368 14 -9 8 -12 76 -10 297 l3 286 85 8 c47 4
200 14 340 21 140 7 262 14 270 14 8 1 21 -2 28 -6z"/>
<path d="M4920 5271 l-95 -6 -3 -102 -3 -103 99 0 c55 0 120 3 146 6 l47 7 -3
101 -3 101 -45 1 c-25 0 -88 -2 -140 -5z"/>
<path d="M4503 5250 c-22 -9 -23 -15 -23 -100 l0 -90 140 0 140 0 0 100 0 100
-117 -1 c-65 0 -128 -4 -140 -9z"/>
<path d="M4547 4983 l-68 -4 3 -97 3 -97 135 0 135 0 3 103 3 102 -73 -2 c-40
-1 -104 -3 -141 -5z"/>
<path d="M4827 4983 c-4 -3 -7 -51 -7 -105 l0 -98 145 0 145 0 0 105 0 105
-138 0 c-76 0 -142 -3 -145 -7z"/>
<path d="M6010 5551 l0 -952 97 3 98 3 3 450 c1 248 5 461 8 474 l5 24 117 -7
c206 -11 532 -40 545 -48 9 -5 13 -107 15 -437 2 -327 6 -430 15 -433 7 -2 60
-2 119 0 l108 4 2 331 c2 183 2 503 0 713 l-2 380 -546 218 c-300 120 -554
221 -565 223 -19 5 -19 -11 -19 -946z m394 340 c72 -11 122 -24 127 -32 11
-18 11 -200 0 -217 -7 -11 -32 -11 -144 2 -75 8 -141 17 -147 21 -11 7 -14
202 -4 229 8 20 21 20 168 -3z m371 -56 c54 -8 103 -19 109 -25 14 -14 14
-186 0 -200 -16 -16 -244 4 -255 22 -5 7 -9 59 -9 116 l0 102 28 0 c16 0 73
-7 127 -15z"/>
<path d="M5417 5303 l-47 -4 2 -347 3 -347 143 -3 142 -3 0 356 0 355 -97 -2
c-54 -1 -119 -3 -146 -5z"/>
<path d="M3914 4565 c-14 -36 -17 -35 481 -62 401 -21 1701 -29 2110 -14 467
18 838 40 848 50 20 20 -1 40 -35 36 -143 -19 -1118 -45 -1673 -45 -612 0
-1580 26 -1698 45 -18 3 -30 0 -33 -10z"/>

</g>
</svg>
